# xmcd
#
# Track frame offsets:
#	150
#	26402
#	48705
#	68030
#	99307
#	136510
#	152235
#	170315
#	201727
#	219615
#	260652
#	285987
#
# Disc length: 4702
#
# Revision: 1
# Processed by: cddbd v1.5.1PL0 Copyright (c) Steve Scherf et al.
# Submitted via: CDex 1.50beta8
# Normalized: r0:DSETVAR1,TDELIM( - )
#
DISCID=ac125c0c
DTITLE=Various Artist - 12" Jazz Funk Classics Disk 1
DYEAR=1998
DGENRE=Jazz
TTITLE0=Second Image - Special Lady
TTITLE1=Rodney Franklin - The Groove
TTITLE2=Locksmith - Blackjack
TTITLE3=Roy Ayers - Cant You See Me
TTITLE4=Wilbert Longmire - Black Is The Colour
TTITLE5=Paulinho Da Costa - Love Till The End Of Time
TTITLE6=Average White Band - Pick Up The Pieces
TTITLE7=John Handy - Hard Work
TTITLE8=Spyro Gyra - Morning Dance
TTITLE9=John Klemmer - Brasilia
TTITLE10=Bob James - Sign Of The Times
TTITLE11=Gil Scott Heron - The Bottle (Live)
EXTD=YEAR: 1998
EXTT0=
EXTT1=
EXTT2=
EXTT3=
EXTT4=
EXTT5=
EXTT6=
EXTT7=
EXTT8=
EXTT9=
EXTT10=
EXTT11=
PLAYORDER=
